<svg width="293" height="69" viewBox="0 0 293 69" fill="none" xmlns="http://www.w3.org/2000/svg">
    <path d="M29.3997 1.00001C40.4735 1.00001 42.3192 19.121 42.3192 19.121" stroke="#414143" stroke-width="2" stroke-miterlimit="10" stroke-linecap="round"/>
    <path d="M11.6674 13.417V28.4786C12.9104 28.2348 14.1937 28.1042 15.5075 28.1042C26.4865 28.1042 35.3864 37.0041 35.3864 47.9837C35.3864 53.808 31.8434 59.4769 27.751 64.0894H55.9025C59.3064 64.0894 62.0655 61.3297 62.0655 57.9264V13.417H11.6674Z" fill="#49DAC2"/>
    <path d="M51.0475 13.417V57.9264C51.0475 61.3297 53.8072 64.0894 57.2105 64.0894H62.5829C65.9869 64.0894 68.7459 61.3297 68.7459 57.9264V13.417H51.0475Z" fill="#414143"/>
    <path d="M17.9059 19.2062C17.9059 20.0864 17.1921 20.7996 16.3112 20.7996C15.4309 20.7996 14.7178 20.0858 14.7178 19.2062C14.7178 18.3253 15.4316 17.6115 16.3112 17.6115C17.1927 17.6115 17.9059 18.3253 17.9059 19.2062Z" fill="#FBF8EE"/>
    <path d="M38.0409 19.2062C38.0409 20.0864 37.3271 20.7996 36.4462 20.7996C35.5666 20.7996 34.8528 20.0858 34.8528 19.2062C34.8528 18.3253 35.5666 17.6115 36.4462 17.6115C37.3271 17.6115 38.0409 18.3253 38.0409 19.2062Z" fill="#FBF8EE"/>
    <path d="M64.1322 19.2062C64.1322 20.0864 63.4184 20.7996 62.5375 20.7996C61.6573 20.7996 60.9441 20.0858 60.9441 19.2062C60.9441 18.3253 61.6579 17.6115 62.5375 17.6115C63.419 17.6115 64.1322 18.3253 64.1322 19.2062Z" fill="#FBF8EE"/>
    <path d="M36.4462 19.1217C36.4462 19.1217 38.3763 1.00065 49.4502 1.00065C60.5241 1.00065 62.3698 19.1217 62.3698 19.1217" stroke="#414143" stroke-width="2" stroke-miterlimit="10" stroke-linecap="round"/>
    <path d="M16.3962 19.1217C16.3962 19.1217 18.3251 1.00065 29.3996 1.00065" stroke="#414143" stroke-width="2" stroke-miterlimit="10" stroke-linecap="round"/>
    <path d="M15.245 32.3117C6.82546 32.3117 0 39.1371 0 47.5573C0 58.3165 15.245 68.0765 15.245 68.0765C15.245 68.0765 30.4906 58.1416 30.4906 47.5573C30.4906 39.1371 23.6645 32.3117 15.245 32.3117ZM15.2456 55.9215C9.75872 55.9215 5.31071 51.4742 5.31071 45.9866C5.31071 40.4997 9.75872 36.0517 15.2456 36.0517C20.7318 36.0517 25.1805 40.4997 25.1805 45.9866C25.1805 51.4742 20.7318 55.9215 15.2456 55.9215Z" fill="#FCB041"/>
    <path d="M7.69983 61.9272C11.4847 65.6679 15.2443 68.0765 15.2443 68.0765C15.2443 68.0765 30.4899 58.1416 30.4899 47.5573C30.4899 46.6107 30.3989 45.6863 30.2344 44.7878C30.9365 53.7586 19.364 64.852 7.69983 61.9272Z" fill="#FCB041"/>
    <path opacity="0.5" d="M43.3034 64.0894C41.2803 51.8304 36.9838 40.0824 28.9693 33.359C32.9128 36.9918 35.3865 42.1978 35.3865 47.9831C35.3865 53.8074 31.8434 59.4763 27.751 64.0888H43.3034V64.0894Z" fill="#49DAC2"/>
    <path d="M15.2457 53.2327C11.2437 53.2327 7.99963 49.9893 7.99963 45.9866C7.99963 41.9846 11.2437 38.7399 15.2457 38.7399C19.2471 38.7399 22.4918 41.9839 22.4918 45.9866C22.4918 49.9893 19.2471 53.2327 15.2457 53.2327Z" fill="#FCB041"/>
    <path d="M184.513 27.7346C185.279 26.5407 186.335 25.5764 187.682 24.8417C189.029 24.107 190.605 23.7396 192.412 23.7396C194.524 23.7396 196.437 24.2753 198.152 25.3468C199.866 26.4183 201.213 27.9489 202.192 29.9388C203.203 31.9286 203.708 34.2399 203.708 36.8726C203.708 39.5053 203.203 41.8319 202.192 43.8524C201.213 45.8422 199.866 47.3882 198.152 48.4903C196.437 49.5617 194.524 50.0975 192.412 50.0975C190.636 50.0975 189.059 49.7301 187.682 48.9954C186.335 48.2607 185.279 47.3117 184.513 46.1484V61.9447H176.661V24.107H184.513V27.7346ZM195.718 36.8726C195.718 34.9134 195.167 33.3827 194.065 32.2807C192.993 31.148 191.662 30.5816 190.07 30.5816C188.508 30.5816 187.177 31.148 186.075 32.2807C185.003 33.4133 184.467 34.9593 184.467 36.9185C184.467 38.8778 185.003 40.4237 186.075 41.5564C187.177 42.6891 188.508 43.2554 190.07 43.2554C191.631 43.2554 192.963 42.6891 194.065 41.5564C195.167 40.3931 195.718 38.8319 195.718 36.8726Z" fill="#414143"/>
    <path d="M159.087 50.0975C156.577 50.0975 154.311 49.5617 152.291 48.4903C150.301 47.4188 148.724 45.8882 147.561 43.8983C146.428 41.9085 145.862 39.5819 145.862 36.9185C145.862 34.2858 146.444 31.9745 147.607 29.9847C148.77 27.9642 150.362 26.4183 152.383 25.3468C154.403 24.2753 156.668 23.7396 159.179 23.7396C161.689 23.7396 163.954 24.2753 165.975 25.3468C167.995 26.4183 169.587 27.9642 170.75 29.9847C171.914 31.9745 172.495 34.2858 172.495 36.9185C172.495 39.5513 171.898 41.8779 170.705 43.8983C169.541 45.8882 167.934 47.4188 165.883 48.4903C163.863 49.5617 161.597 50.0975 159.087 50.0975ZM159.087 43.3014C160.587 43.3014 161.857 42.7503 162.898 41.6483C163.97 40.5462 164.505 38.9696 164.505 36.9185C164.505 34.8675 163.985 33.2909 162.944 32.1888C161.934 31.0867 160.679 30.5357 159.179 30.5357C157.648 30.5357 156.378 31.0867 155.367 32.1888C154.357 33.2603 153.852 34.8368 153.852 36.9185C153.852 38.9696 154.342 40.5462 155.321 41.6483C156.332 42.7503 157.587 43.3014 159.087 43.3014Z" fill="#414143"/>
    <path d="M132.232 23.8315C135.171 23.8315 137.528 24.8111 139.303 26.7703C141.079 28.6989 141.967 31.3623 141.967 34.7603V49.7301H134.16V35.8165C134.16 34.1021 133.716 32.7705 132.829 31.8215C131.941 30.8725 130.747 30.398 129.247 30.398C127.747 30.398 126.553 30.8725 125.665 31.8215C124.777 32.7705 124.334 34.1021 124.334 35.8165V49.7301H116.481V15.7496H124.334V27.5509C125.13 26.4183 126.216 25.5152 127.594 24.8417C128.971 24.1682 130.517 23.8315 132.232 23.8315Z" fill="#414143"/>
    <path d="M99.8936 50.0516C97.5364 50.0516 95.4241 49.6689 93.5567 48.9036C91.6893 48.1382 90.1893 47.0055 89.0566 45.5055C87.9545 44.0055 87.3729 42.1993 87.3116 40.087H95.669C95.7915 41.2809 96.2047 42.1993 96.9088 42.8422C97.6129 43.4544 98.5313 43.7606 99.664 43.7606C100.827 43.7606 101.746 43.5004 102.419 42.9799C103.093 42.4289 103.429 41.6789 103.429 40.7299C103.429 39.9339 103.154 39.2757 102.603 38.7553C102.082 38.2349 101.424 37.8063 100.628 37.4696C99.863 37.1328 98.7609 36.7502 97.3221 36.3216C95.2404 35.6787 93.5414 35.0358 92.225 34.393C90.9087 33.7501 89.776 32.8011 88.827 31.5459C87.878 30.2908 87.4035 28.653 87.4035 26.6326C87.4035 23.6325 88.4902 21.2906 90.6638 19.6069C92.8373 17.8925 95.669 17.0354 99.1589 17.0354C102.71 17.0354 105.572 17.8925 107.746 19.6069C109.919 21.2906 111.083 23.6478 111.236 26.6785H102.741C102.679 25.6376 102.297 24.8264 101.593 24.2447C100.889 23.6325 99.9855 23.3263 98.8834 23.3263C97.9344 23.3263 97.1691 23.5866 96.5874 24.107C96.0058 24.5968 95.7149 25.3162 95.7149 26.2652C95.7149 27.306 96.2047 28.1173 97.1844 28.6989C98.164 29.2806 99.6946 29.9081 101.776 30.5816C103.858 31.2857 105.542 31.9592 106.827 32.6021C108.144 33.245 109.277 34.1787 110.226 35.4032C111.175 36.6277 111.649 38.2043 111.649 40.1329C111.649 41.9697 111.175 43.6381 110.226 45.1382C109.307 46.6382 107.96 47.8321 106.185 48.7199C104.409 49.6077 102.312 50.0516 99.8936 50.0516Z" fill="#414143"/>
    <path d="M282.644 44.1166H292.93V50.178H274.792V17.9424H282.644V44.1166Z" fill="#FCB041"/>
    <path d="M264.039 33.6469C265.906 34.0449 267.406 34.9786 268.539 36.448C269.671 37.8868 270.238 39.5399 270.238 41.4073C270.238 44.1013 269.289 46.2442 267.391 47.8361C265.523 49.3973 262.906 50.178 259.539 50.178H244.523V17.9424H259.033C262.309 17.9424 264.865 18.6924 266.702 20.1925C268.569 21.6925 269.503 23.7283 269.503 26.2998C269.503 28.1978 268.998 29.7744 267.988 31.0295C267.008 32.2846 265.692 33.1571 264.039 33.6469ZM252.375 30.9836H257.518C258.804 30.9836 259.783 30.7081 260.457 30.157C261.161 29.5754 261.513 28.7335 261.513 27.6315C261.513 26.5294 261.161 25.6875 260.457 25.1059C259.783 24.5242 258.804 24.2334 257.518 24.2334H252.375V30.9836ZM258.161 43.8411C259.477 43.8411 260.488 43.5503 261.192 42.9686C261.926 42.3563 262.294 41.4839 262.294 40.3512C262.294 39.2185 261.911 38.3307 261.146 37.6879C260.411 37.045 259.385 36.7235 258.069 36.7235H252.375V43.8411H258.161Z" fill="#FCB041"/>
    <path d="M240.435 28.3203C240.435 30.1876 240.006 31.902 239.149 33.4632C238.292 34.9939 236.976 36.2337 235.2 37.1827C233.425 38.1317 231.22 38.6062 228.588 38.6062H223.72V50.178H215.868V17.9424H228.588C231.159 17.9424 233.333 18.3863 235.108 19.2741C236.884 20.1619 238.215 21.3864 239.103 22.9477C239.991 24.5089 240.435 26.2998 240.435 28.3203ZM227.991 32.3612C229.491 32.3612 230.608 32.0091 231.343 31.305C232.078 30.6009 232.445 29.606 232.445 28.3203C232.445 27.0345 232.078 26.0396 231.343 25.3355C230.608 24.6314 229.491 24.2793 227.991 24.2793H223.72V32.3612H227.991Z" fill="#FCB041"/>
</svg>
